<?xml version="1.0" standalone="no"?>
<!DOCTYPE svg PUBLIC "-//W3C//DTD SVG 20010904//EN"
 "http://www.w3.org/TR/2001/REC-SVG-20010904/DTD/svg10.dtd">
<svg version="1.0" xmlns="http://www.w3.org/2000/svg" width="320" height="111.71681424133801" viewBox="0 0 320 111.71681424133801">
<g transform="matrix(1.60806572455823,0,0,1.60806572455823,1.2622243818309564,-23.024445811537774)" fill="#00b6fe">
<path d="M23.76 54.04 c0.12 -0.44 0.28 -2.68 0.44 -4.36 l-0.2 -1.28 c-0.44 -2.76 -3.84 -6.12 -7.88 -7.92 c-1.32 -0.56 -3.56 -1.52 -5.36 -2.36 c-4.6 7.68 -8.44 15.12 -10.48 19.88 c-0.6 1.4 -1.28 0.8 -1 0.08 c2.48 -5.84 4.92 -10.76 10.6 -20.36 c-0.76 -0.32 -1.4 -0.64 -1.72 -0.8 c-1.2 -0.6 -0.92 -2.6 3.8 -2.68 l1.12 -1.8 c7.68 -12.68 15.52 -18.24 16.64 -18.12 s1.72 0.84 1.48 2.04 c-0.2 1.2 -2.16 8.76 -4.08 18.36 c0.52 0.12 1.12 0.28 1.72 0.6 c0.84 0.48 2.8 1.08 -1.72 0.48 l-0.2 0 c-1.36 7.2 -1.56 9.28 -1.88 13.56 c-0.04 0.12 0 0.24 -0.04 0.36 c0.4 2.6 0.32 2.96 0.28 3.48 c-0.04 0.6 -0.8 1.24 -1.08 1.2 s-0.56 0.04 -0.44 -0.36 z M13.12 34.24 c4.8 -0.04 12.4 0.32 13.24 0.36 c2 -10.2 4.08 -17.52 4.16 -18.24 c0.08 -0.68 0.16 -1.32 -0.56 -1.4 c-0.76 -0.08 -10.44 9.16 -16 17.96 z M16.4 39.88 c4.96 2.36 7.2 4.84 8.04 7.16 c0.24 -2.56 0.48 -4.92 1.68 -11.36 c-4.32 -0.44 -10.16 -0.4 -13.68 -0.32 c-0.44 0.68 -0.84 1.36 -1.24 2.04 z M8.72 36.24 l1.6 0.76 l0.96 -1.6 c-2.8 0.2 -2.88 0.76 -2.56 0.84 z M38.12 36.16 c-0.88 0 -3.52 2 -6.36 7.28 c-0.72 2.44 -1.4 4.6 -1.84 5.84 c-1 2.88 -1.4 3.84 -1.68 3.84 c-0.24 0.04 -0.52 -0.2 -0.56 -0.48 c0 -0.2 0.6 -3.32 2.52 -7.52 c0.32 -0.76 0.68 -1.48 1.04 -2.16 c0.88 -2.96 1.56 -6.32 2.28 -10.48 c0.08 -0.56 0.84 -0.32 0.76 0.28 c-0.36 2.4 -1 5.28 -1.76 8 c2.12 -3.28 4.24 -5.2 5.68 -5.2 c0.52 0 1.32 0.72 1.32 2.16 c0 0.2 -0.04 0.4 -0.04 0.6 c2.88 -1.4 6.16 -2.72 8.64 -3.4 c0.48 -0.12 0.96 0.28 0.44 0.4 c-2.48 0.68 -6.2 2.24 -9.28 3.84 c-0.32 1.08 -0.96 2.16 -1.72 2.96 c-2.2 2.2 -4.48 1.96 -4.48 0.88 c0 -0.96 2.28 -2.56 5.28 -4.12 c0.12 -0.48 0.2 -0.92 0.24 -1.36 c0.04 -0.84 -0.16 -1.36 -0.48 -1.36 z M36.8 41.52 c0.52 -0.48 0.92 -1.08 1.2 -1.72 c-2.32 1.24 -4 2.4 -4 2.96 c0 0.4 0.92 0.6 2.8 -1.24 z M52 40.2 c2.8 0 10.92 -3.76 13.36 -5.08 c0.2 -0.12 1.04 -0.08 0.36 0.36 c-2.64 1.72 -11.12 5.56 -13.76 5.56 c-1.96 0 -2.52 -1.16 -2.52 -2 s0.16 -1.24 0.08 -1.32 c-0.12 -0.12 -0.36 -0.08 -1.64 0.6 c-1.16 0.68 -2.44 1.2 -2.84 1.2 c-0.56 0 -0.96 -0.36 -0.96 -0.6 c0 -0.76 0.48 -1.8 2 -2.92 c1.28 -1 2.08 -1.2 2.76 -1.2 c0.92 0 1.48 1.44 1.08 1.44 s-0.52 -0.8 -0.96 -0.8 c-0.4 0 -1.2 0.32 -2.32 1.08 c-1.04 0.68 -1.84 1.84 -1.84 2.16 c0 0.08 0.04 0.12 0.16 0.12 c0.36 0 1.04 -0.28 2.16 -0.84 c1.52 -0.72 2.52 -1.28 3 -1.28 c0.16 0 0.52 0.08 0.52 0.36 c0 0.32 -0.4 1.04 -0.4 1.96 c0 0.68 0.72 1.2 1.76 1.2 z M67.04 41.24 c-0.88 -0.12 -1.48 -1.04 -0.52 -3.04 c0.4 -0.88 0.68 -1.4 0.68 -1.6 c0 -0.16 -0.12 -0.28 -0.96 -0.6 c-1.08 -0.4 -1.24 -1.44 -1.04 -2.24 c0.36 -1.44 1.52 -1.88 2.12 -1.76 c0.32 0.08 0.76 0.52 0.72 0.84 c-0.12 1.04 -0.76 1.72 -1.84 2.32 c0.08 0.08 0.2 0.16 0.36 0.2 c1.48 0.6 1.68 0.72 1.68 1.08 c0 0.32 -0.44 0.96 -0.96 2.08 c-0.6 1.24 -0.64 1.76 0.04 1.84 c2.24 0.28 7.96 -1.52 12.16 -5.12 c0.4 -0.36 0.88 -0.08 0.52 0.24 c-4.24 4.04 -10.92 6.04 -12.96 5.76 z M66 33.96 c-0.08 0.24 -0.12 0.48 -0.04 0.72 c1.16 -0.72 1.44 -1.32 1.48 -1.88 c0 -0.08 0 -0.12 -0.08 -0.16 c-0.4 -0.12 -1.16 0.68 -1.36 1.32 z M79.6 35.32 c0.08 -0.32 0.36 -0.32 0.56 -0.36 c0.24 0 0.36 0.08 0.32 0.44 c-0.08 0.76 -0.6 2.16 -0.68 2.48 c-0.04 0.08 0 0.16 0.12 0.16 s1.28 -0.56 2.08 -0.96 c1.16 -0.6 1.96 -1.04 2.56 -1.04 s1.08 0.48 1.08 1.28 c-0.08 1.12 -0.04 1.8 0.32 1.84 c0.72 0.16 3.32 -0.64 5.32 -1.48 l6.16 -2.56 c0.36 -0.16 0.56 0.4 0.12 0.6 c-1.64 0.84 -3.92 1.76 -6.04 2.68 c-2.08 0.88 -4.8 1.76 -6 1.52 c-0.84 -0.16 -1.04 -1 -0.96 -2.12 c0.04 -0.6 0 -0.84 -0.12 -0.92 c-0.2 -0.12 -0.64 0.04 -1.4 0.44 c-0.64 0.32 -2.84 1.44 -3.2 1.44 c-0.24 0 -0.96 -0.28 -0.96 -0.6 c0 -0.2 0.52 -1.56 0.72 -2.84 z M101.68 40.2 c2.8 0 10.92 -3.76 13.36 -5.08 c0.2 -0.12 1.04 -0.08 0.36 0.36 c-2.64 1.72 -11.12 5.56 -13.76 5.56 c-1.96 0 -2.52 -1.16 -2.52 -2 s0.16 -1.24 0.08 -1.32 c-0.12 -0.12 -0.36 -0.08 -1.64 0.6 c-1.16 0.68 -2.44 1.2 -2.84 1.2 c-0.56 0 -0.96 -0.36 -0.96 -0.6 c0 -0.76 0.48 -1.8 2 -2.92 c1.28 -1 2.08 -1.2 2.76 -1.2 c0.92 0 1.48 1.44 1.08 1.44 s-0.52 -0.8 -0.96 -0.8 c-0.4 0 -1.2 0.32 -2.32 1.08 c-1.04 0.68 -1.84 1.84 -1.84 2.16 c0 0.08 0.04 0.12 0.16 0.12 c0.36 0 1.04 -0.28 2.16 -0.84 c1.52 -0.72 2.52 -1.28 3 -1.28 c0.16 0 0.52 0.08 0.52 0.36 c0 0.32 -0.4 1.04 -0.4 1.96 c0 0.68 0.72 1.2 1.76 1.2 z M128.4 40.36 c-0.96 -0.4 -1.92 -1.96 -1.92 -3.68 c0 -2.12 0.76 -6.88 4.64 -12.52 c3.64 -5.32 8 -9.36 12.56 -9.36 c6.04 0 2.36 12.44 -1.56 22.36 c1.08 -0.16 1.88 -0.36 2.4 -0.68 c0.68 -0.4 0.8 0.08 0.32 0.44 c-0.64 0.48 -1.6 0.84 -3.08 1.12 l-0.28 0.72 c-3.88 9.52 -11.24 24.48 -18.8 24.48 c-6 0 -9.96 -7.92 -1.08 -16.52 c5.92 -5.72 15.36 -8.64 19.4 -9.36 c6.36 -14.88 5.92 -21.6 2.56 -21.6 c-3.24 0 -8.52 4.68 -11.36 8.88 c-3.24 4.8 -5 9.8 -5 12.16 c0 1.84 1 2.68 1.64 3.04 c0.64 0.44 0.16 0.8 -0.44 0.52 z M122.56 62.519999999999996 c5.28 0 11.28 -8.84 18.04 -24.28 c-5.04 0.96 -12.8 3.76 -18.32 9.08 c-7.36 7.16 -4.36 15.2 0.28 15.2 z M146.72 38.36 c0.32 -0.68 0.72 -1.28 1.08 -1.76 c-0.2 -0.2 -0.4 -0.4 -0.52 -0.68 c-0.72 -1.52 0.6 -3.32 2.36 -3.32 s2.84 1.64 2.84 4.16 l0 0.12 c0.16 0 0.32 0 0.52 -0.04 c2 -0.16 5.72 -1.12 7.4 -1.72 c0.28 -0.12 0.48 0.32 0.28 0.4 c-0.88 0.36 -5.44 1.84 -7.8 2.04 c-0.16 0.04 -0.32 0.04 -0.44 0.04 c-0.36 3.84 -3.2 6.96 -5.04 6.96 c-1.8 0 -2.28 -3.08 -0.68 -6.2 z M147.23999999999998 43.84 c1.8 0 3.96 -2.72 4.32 -6.24 c-1.08 0 -2.24 -0.16 -3.08 -0.56 c-0.32 0.44 -0.68 0.96 -0.96 1.48 c-1.52 2.96 -1.04 5.32 -0.28 5.32 z M149.92 35.28 c0 0.08 -0.44 0.48 -0.96 1.12 c0.72 0.32 1.68 0.48 2.68 0.48 l0 -0.4 c0 -2.08 -1 -3.2 -2.12 -3.2 c-1.08 0 -2.08 1.04 -1.52 2.24 c0.08 0.2 0.2 0.32 0.32 0.48 c0.6 -0.64 1.12 -1 1.24 -1 c0.24 0 0.36 0.12 0.36 0.28 z M162.4 29.96 c-1.48 0.88 -2.12 1.96 -1.88 2.96 c0.2 0.8 0.88 2.28 1.48 4.08 c1.6 -1.28 3.08 -2.24 4.6 -2.92 c0.12 -0.08 0.6 -0.16 0.76 -0.12 c0.32 0.12 -0.08 0.28 -0.32 0.4 c-1.32 0.52 -3 1.8 -4.8 3.4 c0.48 1.6 0.88 3.36 0.88 5.2 c0 4.24 -3.56 6.8 -5.88 6.8 c-3.28 0 -3.44 -4.76 1.92 -10.12 c0.76 -0.76 1.48 -1.44 2.16 -2.04 c-0.52 -1.56 -1.16 -3.04 -1.44 -4.2 c-0.6 -2.2 0.84 -3.92 2.04 -4.04 c0.92 -0.12 0.88 0.4 0.48 0.6 z M162.4 42.44 c0 -1.32 -0.36 -2.72 -0.8 -4.08 l-1.72 1.68 c-4.84 4.88 -4.76 9.04 -3.04 9.04 c2.56 0 5.56 -2.96 5.56 -6.64 z M170 26.92 c1.84 -8.64 2.88 -10.8 3.52 -10.8 c0.36 0 0.44 0.96 0.36 1.32 c-0.12 0.48 -0.64 1.32 -1.08 2.28 c-0.08 0.2 -1.12 4.16 -1.88 7.72 c-1.12 5 -1.88 9.8 -2.16 11.96 c2.28 -1.52 3.6 -2.52 4.48 -2.56 c0.76 0 0.84 0.64 0.84 1.48 c0 1.04 -0.08 1.52 0.64 1.52 c2.72 0 7.36 -2.6 10.72 -4.56 c0.48 -0.24 0.92 0.28 0.2 0.64 c-4.4 2.4 -7.44 4.64 -10.76 4.68 c-1.16 0 -1.72 -0.8 -1.72 -1.8 c0 -0.56 0.12 -1 -0.12 -1 c-0.4 0 -2.48 1.2 -4 2.2 c-0.32 0.24 -0.64 0.48 -0.88 0.48 s-0.44 -0.44 -0.32 -1.28 c0.32 -2.4 1.04 -7.08 2.16 -12.28 z M197.96000000000004 34.96 c0.2 0 0.36 0.4 0.16 0.48 c-0.48 0.12 -2.4 1.2 -7 2.76 c-3.64 1.24 -4.56 1.44 -5.2 1.44 c-1.04 0 -1.36 -0.72 -1.36 -1.36 c0 -0.6 0.16 -1.64 0.4 -2.32 c0.16 -0.56 0.36 -0.88 1.04 -1 c0.2 -0.04 0.44 0.2 0.2 0.64 c-0.6 1.24 -0.72 2 -0.8 2.64 c-0.04 0.48 0.16 0.72 0.36 0.72 c0.52 0 1.64 -0.12 5.04 -1.32 c3.92 -1.4 6.92 -2.68 7.16 -2.68 z M186.8 32.12 c-0.2 -0.08 -0.36 -0.76 -0.28 -1.04 c0.08 -0.24 0.4 -0.68 0.64 -0.64 c0.36 0.08 0.6 0.56 0.52 0.92 c-0.12 0.36 -0.64 0.8 -0.88 0.76 z"></path></g></svg>