<?xml version="1.0" standalone="no"?>
<!DOCTYPE svg PUBLIC "-//W3C//DTD SVG 20010904//EN"
 "http://www.w3.org/TR/2001/REC-SVG-20010904/DTD/svg10.dtd">
<svg version="1.0" xmlns="http://www.w3.org/2000/svg" width="319.99999999999994" height="204.71681424133803" viewBox="0 0 319.99999999999994 204.71681424133803">
<g transform="matrix(4.198102443090508,0,0,4.198102443090508,11.454115683870764,-67.30723558675889)" fill="#00b6fe"><path d="M10.6 17.4 c-0.68 1.84 -2.16 10.2 -3.48 17.48 l-0.16 0.76 c3.72 -0.28 7.8 -0.32 11.12 -0.12 l1.16 -6.04 c0.92 -4.96 1.56 -7.88 1.92 -9.6 c0.32 -1.76 1.64 -2.64 1.56 -1.92 c0 0.68 -0.36 2.12 -1.64 8.32 c-0.44 2.12 -1.08 5.52 -1.68 9.32 c0.24 0 0.44 0.04 0.68 0.04 c0.52 0.04 2.16 0.2 3.04 0.64 c0.76 0.44 -1.44 0.2 -3.12 0.04 c-0.24 0 -0.48 -0.04 -0.72 -0.04 l0 0.12 c-1.2 7.16 -2.48 11.36 -2.84 15.72 l-0.12 1.12 c0.4 1.48 0.56 2.2 0.48 2.76 c0 0.52 -0.68 1.16 -1.16 1.04 c-0.28 -0.04 -0.56 0 -0.44 -0.4 c0.04 -0.24 0.24 -1.8 0.36 -3.28 l-0.12 -0.44 c-0.96 -4.24 -5.28 -7.44 -9.84 -9.92 c-0.68 3.88 -1 6.12 -0.72 7.04 c0.36 1.68 -0.88 1.2 -0.88 0.08 c-0.08 -1.96 0.04 -3.96 0.56 -7.64 c-2.16 -1.12 -4.36 -2.08 -6.2 -2.92 c-1.24 -0.6 -2.32 -1.92 2.12 -3 c1.44 -0.32 3.24 -0.6 5.2 -0.8 c0 -0.12 0.04 -0.28 0.08 -0.4 l2.88 -15.64 c0.32 -1.68 1.04 -2.88 1.68 -3.48 c0.68 -0.6 0.64 0.2 0.28 1.16 z M17.96 36.24 l0 -0.08 c-3.84 -0.2 -7.76 0.08 -11.16 0.48 l-1.08 5.56 c4.4 2.4 8.4 5.48 10 9.08 c0.4 -3.92 1.24 -8.92 2.24 -15.04 z M-1.2 39.04 c1.88 0.76 3.92 1.6 5.88 2.6 c0.2 -1.36 0.48 -2.92 0.8 -4.8 c-1.68 0.24 -3.24 0.48 -4.48 0.76 c-3.48 0.8 -2.6 1.32 -2.2 1.44 z M23.44 38.36 c0.32 -0.68 0.72 -1.28 1.08 -1.76 c-0.2 -0.2 -0.4 -0.4 -0.52 -0.68 c-0.72 -1.52 0.6 -3.32 2.36 -3.32 s2.84 1.64 2.84 4.16 l0 0.12 c0.16 0 0.32 0 0.52 -0.04 c2 -0.16 5.72 -1.12 7.4 -1.72 c0.28 -0.12 0.48 0.32 0.28 0.4 c-0.88 0.36 -5.44 1.84 -7.8 2.04 c-0.16 0.04 -0.32 0.04 -0.44 0.04 c-0.36 3.84 -3.2 6.96 -5.04 6.96 c-1.8 0 -2.28 -3.08 -0.68 -6.2 z M23.96 43.84 c1.8 0 3.96 -2.72 4.32 -6.24 c-1.08 0 -2.24 -0.16 -3.08 -0.56 c-0.32 0.44 -0.68 0.96 -0.96 1.48 c-1.52 2.96 -1.04 5.32 -0.28 5.32 z M26.64 35.28 c0 0.08 -0.44 0.48 -0.96 1.12 c0.72 0.32 1.68 0.48 2.68 0.48 l0 -0.4 c0 -2.08 -1 -3.2 -2.12 -3.2 c-1.08 0 -2.08 1.04 -1.52 2.24 c0.08 0.2 0.2 0.32 0.32 0.48 c0.6 -0.64 1.12 -1 1.24 -1 c0.24 0 0.36 0.12 0.36 0.28 z M48.48 42.08 c-1.04 0 -0.96 -1 -0.48 -3.72 c0.52 -2.88 0.6 -3.24 0.4 -3.32 c-0.28 -0.16 -1.68 1.24 -2.72 2.52 c-1.28 1.56 -1.88 1.96 -2.36 1.88 c-0.44 -0.08 -0.56 -0.56 -0.04 -3.36 c0.44 -2.2 0.52 -3.48 0.2 -3.68 c-0.44 -0.24 -0.96 0.16 -3.16 3.68 c-2.4 3.96 -2.92 5.76 -3.56 5.76 c-0.36 0 -0.48 -0.32 -0.4 -0.88 c0.36 -2.16 0.52 -4.52 0.56 -5.4 c0.04 -0.8 1.12 -0.8 1.04 0.08 c-0.12 0.92 -0.52 2.8 -0.72 3.92 c-0.08 0.6 0.8 -1.04 2.44 -3.8 c2.04 -3.36 3 -4.36 3.88 -4.2 c1.16 0.24 0.88 1.92 0.4 4.56 l-0.36 1.96 c-0.12 0.64 0.12 0.8 0.64 0.16 c0.24 -0.24 0.56 -0.56 0.84 -0.92 c1.48 -1.8 2.92 -3.24 3.56 -3.24 c0.44 0 0.68 0.44 0.68 0.88 s-0.16 1.6 -0.56 3.44 c-0.52 2.4 -0.48 3 -0.12 3 c1.88 0 7.04 -3.04 12.36 -6.28 c0.2 -0.12 0.96 0.12 0.32 0.52 c-3.68 2.4 -10.2 6.44 -12.84 6.44 z M61.599999999999994 40.48 c-2.08 0.16 -3 -1.6 -2.16 -3.44 c0.8 -1.84 2.4 -2.56 3.24 -2.4 c0.76 0.12 1 0.76 0.68 1.68 c-0.48 1.24 -1.96 2.12 -3.4 2.6 c0.16 0.56 0.68 0.84 1.4 0.8 c1.84 -0.16 4.4 -1.44 11.64 -4.6 c0.52 -0.24 0.64 0.28 0.32 0.4 c-6.08 2.68 -9.52 4.8 -11.72 4.96 z M60.16 37.32 c-0.2 0.44 -0.28 0.8 -0.28 1.12 c1.16 -0.4 2.56 -1.52 2.88 -2.4 c0.12 -0.36 0.08 -0.72 -0.2 -0.8 c-0.44 -0.12 -1.72 0.4 -2.4 2.08 z"></path></g></svg>
