<?xml version="1.0" encoding="UTF-8"?>
<svg width="16px" height="16px" viewBox="0 0 16 16" version="1.1" xmlns="http://www.w3.org/2000/svg" xmlns:xlink="http://www.w3.org/1999/xlink">
    <g id="Symbols" stroke="none" stroke-width="1" fill="none" fill-rule="evenodd">
        <g id="Search-Field-+-Find-focus-236-typing" transform="translate(-207.000000, -16.000000)">
            <g id="Ico-delete" transform="translate(195.000000, 4.000000)">
                <g stroke-width="1" fill-rule="evenodd" transform="translate(12.000000, 12.000000)">
                    <circle id="Oval" fill="#CCCCCC" cx="8" cy="8" r="8"></circle>
                    <path d="M8.80897612,8.00112514 L10.9032379,5.90386298 C11.0292537,5.77784723 11.0292537,5.56782098 10.9032379,5.44180523 L10.5581948,5.0967621 C10.432179,4.97074634 10.2221528,4.97074634 10.096137,5.0967621 L7.99887486,7.19102388 L5.90461308,5.0967621 C5.77859732,4.96774597 5.56857107,4.96774597 5.44255532,5.0967621 L5.09451181,5.44180523 C4.96849606,5.56782098 4.96849606,5.77784723 5.09451181,5.90386298 L7.1887736,8.00112514 L5.09451181,10.0953869 C4.96849606,10.2214027 4.96849606,10.4314289 5.09451181,10.5574447 L5.44255532,10.9054882 C5.56857107,11.0315039 5.77859732,11.0315039 5.90461308,10.9054882 L7.99887486,8.8112264 L10.0931366,10.9054882 C10.2191524,11.0315039 10.4291786,11.0315039 10.5551944,10.9054882 L10.9032379,10.5574447 C11.0292537,10.4314289 11.0292537,10.2214027 10.9032379,10.0953869 L8.80897612,8.00112514 L8.80897612,8.00112514 Z" id="XMLID_14_" fill="#FFFFFF"></path>
                </g>
                <rect id="Hit-area-40x40px" x="0" y="0" width="40" height="40"></rect>
            </g>
        </g>
    </g>
</svg>
