<?xml version="1.0" standalone="no"?>
<!DOCTYPE svg PUBLIC "-//W3C//DTD SVG 20010904//EN"
 "http://www.w3.org/TR/2001/REC-SVG-20010904/DTD/svg10.dtd">
<svg version="1.0" xmlns="http://www.w3.org/2000/svg"
 width="636.000000pt" height="606.000000pt" viewBox="0 0 636.000000 606.000000"
 preserveAspectRatio="xMidYMid meet">
<g transform="translate(0.000000,606.000000) scale(0.100000,-0.100000)"
fill="#ffffff" stroke="none">
<path d="M2540 6046 c0 -3 135 -249 300 -546 165 -298 300 -543 300 -544 0 -2
-54 -6 -119 -9 -863 -47 -1637 -548 -2023 -1312 -115 -227 -184 -433 -229
-685 -27 -146 -37 -495 -20 -662 107 -1036 888 -1885 1947 -2117 226 -50 567
-67 804 -41 846 93 1459 573 1750 1370 51 139 110 366 110 421 0 64 -61 111
-125 95 -14 -4 -72 -50 -128 -102 -463 -436 -988 -693 -1548 -758 -286 -33
-531 -28 -694 15 -342 89 -621 369 -717 719 -20 73 -23 108 -23 255 0 146 3
182 23 254 114 416 483 724 897 747 88 5 110 1 1279 -250 653 -141 1205 -256
1225 -256 50 0 111 38 138 85 27 48 30 122 7 168 -15 31 -3131 3157 -3146
3157 -5 0 -8 -2 -8 -4z m2170 -2686 c0 -3 -19 -17 -43 -32 -228 -142 -541 -51
-661 194 -77 156 -70 317 18 457 l28 44 329 -329 c181 -181 329 -331 329 -334z"/>
</g>
</svg>
